<!DOCTYPE svg PUBLIC "-//W3C//DTD SVG 20010904//EN" "http://www.w3.org/TR/2001/REC-SVG-20010904/DTD/svg10.dtd">
<svg version="1.0" xmlns="http://www.w3.org/2000/svg" width="752px" height="452px" viewBox="0 0 7520 4520" preserveAspectRatio="xMidYMid meet">
<g id="layer101" fill="#947869" stroke="none">
<path d="M0 2260 l0 -2260 3760 0 3760 0 0 2260 0 2260 -3760 0 -3760 0 0 -2260z"/>
</g>
<g id="layer102" fill="#4472c4" stroke="none">
<path d="M0 2260 l0 -2260 3760 0 3760 0 0 2260 0 2260 -3760 0 -3760 0 0 -2260z m3478 1917 c26 -2 7 -3 -43 -4 -49 0 -72 2 -50 5 36 4 38 6 15 12 -24 8 -24 8 -2 9 12 1 22 6 22 11 0 6 -10 10 -22 11 l-23 1 23 6 c13 4 23 10 23 15 -1 4 0 13 1 20 1 6 3 -9 5 -35 l4 -47 47 -4z m185 86 c-13 -2 -33 -2 -45 0 -13 2 -3 4 22 4 25 0 35 -2 23 -4z m805 -86 c26 -2 7 -3 -43 -4 -49 0 -72 2 -50 5 36 4 38 6 15 12 -24 8 -24 8 -2 9 12 1 22 6 22 11 0 6 -10 10 -22 11 l-23 1 23 6 c13 4 23 10 23 15 -1 4 0 13 1 20 1 6 3 -9 5 -35 l4 -47 47 -4z m220 50 l3 -37 -73 2 -73 2 68 3 c66 4 67 4 67 33 0 15 -5 31 -10 33 -6 3 -5 4 2 3 7 -1 14 -19 16 -39z m-1311 27 c-3 -3 -12 -4 -19 -1 -8 3 -5 6 6 6 11 1 17 -2 13 -5z m117 -8 c-10 -8 -21 -12 -24 -10 -5 6 21 24 34 24 6 0 1 -6 -10 -14z m873 8 c-3 -3 -12 -4 -19 -1 -8 3 -5 6 6 6 11 1 17 -2 13 -5z m117 -8 c-10 -8 -21 -12 -24 -10 -5 6 21 24 34 24 6 0 1 -6 -10 -14z m166 -17 c0 -15 -7 -19 -35 -19 -30 0 -35 3 -35 23 0 20 4 23 35 19 26 -3 35 -9 35 -23z m-944 9 c4 -7 4 -10 -1 -6 -4 4 -15 2 -24 -5 -14 -11 -14 -10 -2 6 16 20 18 21 27 5z m-99 -5 c-4 -3 -10 -3 -14 0 -3 4 0 7 7 7 7 0 10 -3 7 -7z m40 -10 c-4 -3 -10 -3 -14 0 -3 4 0 7 7 7 7 0 10 -3 7 -7z m-147 -15 c0 -5 -14 -8 -31 -8 -16 0 -28 3 -26 8 3 4 17 7 31 7 14 0 26 -3 26 -7z m990 0 c0 -5 -14 -8 -31 -8 -16 0 -28 3 -26 8 3 4 17 7 31 7 14 0 26 -3 26 -7z m-823 -15 c-4 -3 -7 0 -7 7 0 7 3 10 7 7 3 -4 3 -10 0 -14z m-97 -35 c0 -6 -6 -5 -15 2 -8 7 -15 14 -15 16 0 2 7 1 15 -2 8 -4 15 -11 15 -16z m88 15 c-10 -2 -28 -2 -40 0 -13 2 -5 4 17 4 22 1 32 -1 23 -4z m1002 -14 c0 -18 -5 -20 -42 -17 -31 2 -44 8 -46 21 -3 14 4 17 42 17 40 0 46 -3 46 -21z m-1192 -6 c-15 -2 -42 -2 -60 0 -18 2 -6 4 27 4 33 0 48 -2 33 -4z m211 -41 c9 -7 10 -10 2 -6 -8 4 -28 11 -45 15 -24 5 -26 7 -8 8 13 1 22 8 23 19 1 14 2 14 6 -3 3 -11 13 -26 22 -33z m779 41 c-15 -2 -42 -2 -60 0 -18 2 -6 4 27 4 33 0 48 -2 33 -4z m-990 -20 c-15 -2 -42 -2 -60 0 -18 2 -6 4 27 4 33 0 48 -2 33 -4z m109 -10 c-4 -3 -7 0 -7 7 0 7 3 10 7 7 3 -4 3 -10 0 -14z m881 10 c-15 -2 -42 -2 -60 0 -18 2 -6 4 27 4 33 0 48 -2 33 -4z m207 -10 c-22 -3 -43 -10 -47 -16 -6 -9 -8 -9 -8 0 0 6 -17 14 -37 16 -21 2 0 4 47 4 47 0 67 -2 45 -4z m-1197 -10 c-15 -2 -42 -2 -60 0 -18 2 -6 4 27 4 33 0 48 -2 33 -4z m990 0 c-15 -2 -42 -2 -60 0 -18 2 -6 4 27 4 33 0 48 -2 33 -4z m-3425 -284 c15 -25 1 -49 -28 -49 -38 0 -29 -33 10 -41 30 -7 30 -7 3 -8 -45 -2 -72 54 -47 100 12 24 47 22 62 -2z m936 -1 c5 -13 16 -40 25 -60 l16 -38 -42 2 c-37 1 -38 2 -11 5 l32 4 -19 50 c-21 53 -23 59 -15 59 3 0 9 -10 14 -22z m985 16 c18 -7 22 -39 6 -49 -8 -5 -8 -11 0 -20 15 -18 1 -45 -24 -45 -33 0 -47 19 -34 44 8 15 8 21 -1 24 -6 2 -11 12 -11 22 0 25 31 37 64 24z m970 -13 c22 -24 18 -80 -6 -95 -25 -15 -53 4 -53 35 0 20 6 25 33 27 28 3 31 6 22 22 -5 10 -22 21 -37 23 l-28 4 26 2 c14 0 34 -7 43 -18z m924 12 c-14 -4 -18 -15 -18 -59 0 -55 -8 -66 -30 -39 -11 13 -10 14 4 9 13 -5 16 1 16 39 0 35 -4 47 -17 50 -10 3 0 5 22 5 22 0 32 -2 23 -5z m101 -7 c17 -21 10 -87 -11 -100 -28 -17 -52 5 -56 48 -4 41 11 66 38 66 10 0 23 -6 29 -14z m869 7 c-14 -4 -18 -15 -18 -59 0 -55 -8 -66 -30 -39 -11 13 -10 14 4 9 13 -5 16 1 16 39 0 35 -4 47 -17 50 -10 3 0 5 22 5 22 0 32 -2 23 -5z m100 0 c-14 -4 -18 -15 -18 -59 0 -55 -8 -66 -30 -39 -11 13 -10 14 4 9 13 -5 16 1 16 39 0 35 -4 47 -17 50 -10 3 0 5 22 5 22 0 32 -2 23 -5z m870 0 c-14 -4 -18 -15 -18 -59 0 -55 -8 -66 -30 -39 -11 13 -10 14 4 9 13 -5 16 1 16 39 0 35 -4 47 -17 50 -10 3 0 5 22 5 22 0 32 -2 23 -5z m84 0 l-33 -4 26 -31 c33 -39 30 -72 -7 -76 -16 -2 -28 1 -28 6 0 6 8 8 19 5 31 -8 32 23 0 66 l-29 41 42 -2 c38 -1 39 -2 10 -5z m-6554 -255 c16 -16 16 -80 0 -96 -31 -31 -68 -1 -68 55 0 32 16 53 40 53 9 0 21 -5 28 -12z m-16 -355 l-33 -4 26 -31 c31 -37 30 -72 -4 -76 -13 -2 -28 2 -35 8 -8 9 -4 10 16 5 43 -11 46 17 8 65 l-32 40 44 -2 c37 -1 38 -2 10 -5z m20 -380 c6 -33 -4 -103 -16 -103 -10 0 -56 70 -56 84 0 4 11 6 25 6 16 0 25 6 25 15 0 20 18 19 22 -2z m1 -374 c15 -25 1 -49 -28 -49 -38 0 -29 -33 10 -41 30 -7 30 -7 3 -8 -45 -2 -72 54 -47 100 12 24 47 22 62 -2z m-9 -355 c18 -7 22 -39 6 -49 -8 -5 -8 -11 0 -20 15 -18 1 -45 -24 -45 -33 0 -47 19 -34 44 8 15 8 21 -1 24 -6 2 -11 12 -11 22 0 25 31 37 64 24z m-86 -371 c-14 -4 -18 -15 -18 -59 0 -55 -8 -66 -30 -39 -11 13 -10 14 4 9 13 -5 16 1 16 39 0 35 -4 47 -17 50 -10 3 0 5 22 5 22 0 32 -2 23 -5z m100 -5 c16 -16 16 -80 0 -96 -31 -31 -68 -1 -68 55 0 32 16 53 40 53 9 0 21 -5 28 -12z m-100 -355 c-14 -4 -18 -15 -18 -59 0 -55 -8 -66 -30 -39 -11 13 -10 14 4 9 13 -5 16 1 16 39 0 35 -4 47 -17 50 -10 3 0 5 22 5 22 0 32 -2 23 -5z m84 0 l-33 -4 26 -31 c31 -37 30 -72 -4 -76 -13 -2 -28 2 -35 8 -8 9 -4 10 16 5 43 -11 46 17 8 65 l-32 40 44 -2 c37 -1 38 -2 10 -5z m-84 -370 c-14 -4 -18 -15 -18 -59 0 -55 -8 -66 -30 -39 -11 13 -10 14 4 9 13 -5 16 1 16 39 0 35 -4 47 -17 50 -10 3 0 5 22 5 22 0 32 -2 23 -5z m104 -10 c6 -33 -4 -103 -16 -103 -10 0 -56 70 -56 84 0 4 11 6 25 6 16 0 25 6 25 15 0 20 18 19 22 -2z m-104 -360 c-14 -4 -18 -15 -18 -59 0 -55 -8 -66 -30 -39 -11 13 -10 14 4 9 13 -5 16 1 16 39 0 35 -4 47 -17 50 -10 3 0 5 22 5 22 0 32 -2 23 -5z m105 -14 c15 -25 1 -49 -28 -49 -38 0 -29 -33 10 -41 30 -7 30 -7 3 -8 -45 -2 -72 54 -47 100 12 24 47 22 62 -2z m-105 -356 c-14 -4 -18 -15 -18 -59 0 -55 -8 -66 -30 -39 -11 13 -10 14 4 9 13 -5 16 1 16 39 0 35 -4 47 -17 50 -10 3 0 5 22 5 22 0 32 -2 23 -5z m96 1 c18 -7 22 -39 6 -49 -8 -5 -7 -11 1 -21 24 -29 -31 -60 -59 -32 -8 8 -8 17 0 32 8 15 8 21 -1 24 -12 4 -15 35 -4 45 8 9 36 9 57 1z"/>
</g>
<g id="layer103" fill="#ed7d31" stroke="none">
<path d="M0 2260 l0 -2260 3760 0 3760 0 0 2260 0 2260 -3760 0 -3760 0 0 -2260z m3478 1917 c26 -2 7 -3 -43 -4 -49 0 -72 2 -50 5 36 4 38 6 15 12 -24 8 -24 8 -2 9 12 1 22 6 22 11 0 6 -10 10 -22 11 l-23 1 23 6 c13 4 23 10 23 15 -1 4 0 13 1 20 1 6 3 -9 5 -35 l4 -47 47 -4z m185 86 c-13 -2 -33 -2 -45 0 -13 2 -3 4 22 4 25 0 35 -2 23 -4z m805 -86 c26 -2 7 -3 -43 -4 -49 0 -72 2 -50 5 36 4 38 6 15 12 -24 8 -24 8 -2 9 12 1 22 6 22 11 0 6 -10 10 -22 11 l-23 1 23 6 c13 4 23 10 23 15 -1 4 0 13 1 20 1 6 3 -9 5 -35 l4 -47 47 -4z m220 50 l3 -37 -73 2 -73 2 68 3 c66 4 67 4 67 33 0 15 -5 31 -10 33 -6 3 -5 4 2 3 7 -1 14 -19 16 -39z m-1311 27 c-3 -3 -12 -4 -19 -1 -8 3 -5 6 6 6 11 1 17 -2 13 -5z m117 -8 c-10 -8 -21 -12 -24 -10 -5 6 21 24 34 24 6 0 1 -6 -10 -14z m873 8 c-3 -3 -12 -4 -19 -1 -8 3 -5 6 6 6 11 1 17 -2 13 -5z m117 -8 c-10 -8 -21 -12 -24 -10 -5 6 21 24 34 24 6 0 1 -6 -10 -14z m166 -17 c0 -15 -7 -19 -35 -19 -30 0 -35 3 -35 23 0 20 4 23 35 19 26 -3 35 -9 35 -23z m-944 9 c4 -7 4 -10 -1 -6 -4 4 -15 2 -24 -5 -14 -11 -14 -10 -2 6 16 20 18 21 27 5z m-99 -5 c-4 -3 -10 -3 -14 0 -3 4 0 7 7 7 7 0 10 -3 7 -7z m-292 -28 c0 -19 -8 -20 -214 -23 -127 -1 -219 2 -224 7 -5 5 -7 17 -4 26 6 13 33 15 224 13 210 -3 218 -4 218 -23z m332 18 c-4 -3 -10 -3 -14 0 -3 4 0 7 7 7 7 0 10 -3 7 -7z m-147 -15 c0 -5 -14 -8 -31 -8 -16 0 -28 3 -26 8 3 4 17 7 31 7 14 0 26 -3 26 -7z m990 0 c0 -5 -14 -8 -31 -8 -16 0 -28 3 -26 8 3 4 17 7 31 7 14 0 26 -3 26 -7z m-823 -15 c-4 -3 -7 0 -7 7 0 7 3 10 7 7 3 -4 3 -10 0 -14z m-97 -35 c0 -6 -6 -5 -15 2 -8 7 -15 14 -15 16 0 2 7 1 15 -2 8 -4 15 -11 15 -16z m88 15 c-10 -2 -28 -2 -40 0 -13 2 -5 4 17 4 22 1 32 -1 23 -4z m1002 -14 c0 -18 -5 -20 -42 -17 -31 2 -44 8 -46 21 -3 14 4 17 42 17 40 0 46 -3 46 -21z m-1192 -6 c-15 -2 -42 -2 -60 0 -18 2 -6 4 27 4 33 0 48 -2 33 -4z m211 -41 c9 -7 10 -10 2 -6 -8 4 -28 11 -45 15 -24 5 -26 7 -8 8 13 1 22 8 23 19 1 14 2 14 6 -3 3 -11 13 -26 22 -33z m779 41 c-15 -2 -42 -2 -60 0 -18 2 -6 4 27 4 33 0 48 -2 33 -4z m-990 -20 c-15 -2 -42 -2 -60 0 -18 2 -6 4 27 4 33 0 48 -2 33 -4z m109 -10 c-4 -3 -7 0 -7 7 0 7 3 10 7 7 3 -4 3 -10 0 -14z m881 10 c-15 -2 -42 -2 -60 0 -18 2 -6 4 27 4 33 0 48 -2 33 -4z m207 -10 c-22 -3 -43 -10 -47 -16 -6 -9 -8 -9 -8 0 0 6 -17 14 -37 16 -21 2 0 4 47 4 47 0 67 -2 45 -4z m-1197 -10 c-15 -2 -42 -2 -60 0 -18 2 -6 4 27 4 33 0 48 -2 33 -4z m990 0 c-15 -2 -42 -2 -60 0 -18 2 -6 4 27 4 33 0 48 -2 33 -4z m-3425 -284 c15 -25 1 -49 -28 -49 -38 0 -29 -33 10 -41 30 -7 30 -7 3 -8 -45 -2 -72 54 -47 100 12 24 47 22 62 -2z m936 -1 c5 -13 16 -40 25 -60 l16 -38 -42 2 c-37 1 -38 2 -11 5 l32 4 -19 50 c-21 53 -23 59 -15 59 3 0 9 -10 14 -22z m985 16 c18 -7 22 -39 6 -49 -8 -5 -8 -11 0 -20 15 -18 1 -45 -24 -45 -33 0 -47 19 -34 44 8 15 8 21 -1 24 -6 2 -11 12 -11 22 0 25 31 37 64 24z m970 -13 c22 -24 18 -80 -6 -95 -25 -15 -53 4 -53 35 0 20 6 25 33 27 28 3 31 6 22 22 -5 10 -22 21 -37 23 l-28 4 26 2 c14 0 34 -7 43 -18z m924 12 c-14 -4 -18 -15 -18 -59 0 -55 -8 -66 -30 -39 -11 13 -10 14 4 9 13 -5 16 1 16 39 0 35 -4 47 -17 50 -10 3 0 5 22 5 22 0 32 -2 23 -5z m101 -7 c17 -21 10 -87 -11 -100 -28 -17 -52 5 -56 48 -4 41 11 66 38 66 10 0 23 -6 29 -14z m869 7 c-14 -4 -18 -15 -18 -59 0 -55 -8 -66 -30 -39 -11 13 -10 14 4 9 13 -5 16 1 16 39 0 35 -4 47 -17 50 -10 3 0 5 22 5 22 0 32 -2 23 -5z m100 0 c-14 -4 -18 -15 -18 -59 0 -55 -8 -66 -30 -39 -11 13 -10 14 4 9 13 -5 16 1 16 39 0 35 -4 47 -17 50 -10 3 0 5 22 5 22 0 32 -2 23 -5z m870 0 c-14 -4 -18 -15 -18 -59 0 -55 -8 -66 -30 -39 -11 13 -10 14 4 9 13 -5 16 1 16 39 0 35 -4 47 -17 50 -10 3 0 5 22 5 22 0 32 -2 23 -5z m84 0 l-33 -4 26 -31 c33 -39 30 -72 -7 -76 -16 -2 -28 1 -28 6 0 6 8 8 19 5 31 -8 32 23 0 66 l-29 41 42 -2 c38 -1 39 -2 10 -5z m-6554 -255 c16 -16 16 -80 0 -96 -31 -31 -68 -1 -68 55 0 32 16 53 40 53 9 0 21 -5 28 -12z m-16 -355 l-33 -4 26 -31 c31 -37 30 -72 -4 -76 -13 -2 -28 2 -35 8 -8 9 -4 10 16 5 43 -11 46 17 8 65 l-32 40 44 -2 c37 -1 38 -2 10 -5z m20 -380 c6 -33 -4 -103 -16 -103 -10 0 -56 70 -56 84 0 4 11 6 25 6 16 0 25 6 25 15 0 20 18 19 22 -2z m1 -374 c15 -25 1 -49 -28 -49 -38 0 -29 -33 10 -41 30 -7 30 -7 3 -8 -45 -2 -72 54 -47 100 12 24 47 22 62 -2z m4071 -283 c264 -52 666 -129 891 -171 226 -41 430 -81 455 -87 29 -7 225 -13 565 -17 511 -6 520 -6 520 -26 0 -20 -8 -20 -494 -23 l-493 -2 -562 105 c-308 57 -745 140 -970 185 l-409 80 -482 -95 -482 -95 -979 2 c-971 3 -979 3 -979 23 0 20 9 20 1005 26 l1005 6 440 90 c242 50 451 92 464 92 13 1 240 -41 505 -93z m-4080 -72 c18 -7 22 -39 6 -49 -8 -5 -8 -11 0 -20 15 -18 1 -45 -24 -45 -33 0 -47 19 -34 44 8 15 8 21 -1 24 -6 2 -11 12 -11 22 0 25 31 37 64 24z m-86 -371 c-14 -4 -18 -15 -18 -59 0 -55 -8 -66 -30 -39 -11 13 -10 14 4 9 13 -5 16 1 16 39 0 35 -4 47 -17 50 -10 3 0 5 22 5 22 0 32 -2 23 -5z m100 -5 c16 -16 16 -80 0 -96 -31 -31 -68 -1 -68 55 0 32 16 53 40 53 9 0 21 -5 28 -12z m-100 -355 c-14 -4 -18 -15 -18 -59 0 -55 -8 -66 -30 -39 -11 13 -10 14 4 9 13 -5 16 1 16 39 0 35 -4 47 -17 50 -10 3 0 5 22 5 22 0 32 -2 23 -5z m84 0 l-33 -4 26 -31 c31 -37 30 -72 -4 -76 -13 -2 -28 2 -35 8 -8 9 -4 10 16 5 43 -11 46 17 8 65 l-32 40 44 -2 c37 -1 38 -2 10 -5z m-84 -370 c-14 -4 -18 -15 -18 -59 0 -55 -8 -66 -30 -39 -11 13 -10 14 4 9 13 -5 16 1 16 39 0 35 -4 47 -17 50 -10 3 0 5 22 5 22 0 32 -2 23 -5z m104 -10 c6 -33 -4 -103 -16 -103 -10 0 -56 70 -56 84 0 4 11 6 25 6 16 0 25 6 25 15 0 20 18 19 22 -2z m-104 -360 c-14 -4 -18 -15 -18 -59 0 -55 -8 -66 -30 -39 -11 13 -10 14 4 9 13 -5 16 1 16 39 0 35 -4 47 -17 50 -10 3 0 5 22 5 22 0 32 -2 23 -5z m105 -14 c15 -25 1 -49 -28 -49 -38 0 -29 -33 10 -41 30 -7 30 -7 3 -8 -45 -2 -72 54 -47 100 12 24 47 22 62 -2z m-105 -356 c-14 -4 -18 -15 -18 -59 0 -55 -8 -66 -30 -39 -11 13 -10 14 4 9 13 -5 16 1 16 39 0 35 -4 47 -17 50 -10 3 0 5 22 5 22 0 32 -2 23 -5z m96 1 c18 -7 22 -39 6 -49 -8 -5 -7 -11 1 -21 24 -29 -31 -60 -59 -32 -8 8 -8 17 0 32 8 15 8 21 -1 24 -12 4 -15 35 -4 45 8 9 36 9 57 1z"/>
</g>
<g id="layer104" fill="#dddddd" stroke="none">
<path d="M0 2260 l0 -2260 3760 0 3760 0 0 2260 0 2260 -3760 0 -3760 0 0 -2260z m3478 1917 c26 -2 7 -3 -43 -4 -49 0 -72 2 -50 5 36 4 38 6 15 12 -24 8 -24 8 -2 9 12 1 22 6 22 11 0 6 -10 10 -22 11 l-23 1 23 6 c13 4 23 10 23 15 -1 4 0 13 1 20 1 6 3 -9 5 -35 l4 -47 47 -4z m185 86 c-13 -2 -33 -2 -45 0 -13 2 -3 4 22 4 25 0 35 -2 23 -4z m805 -86 c26 -2 7 -3 -43 -4 -49 0 -72 2 -50 5 36 4 38 6 15 12 -24 8 -24 8 -2 9 12 1 22 6 22 11 0 6 -10 10 -22 11 l-23 1 23 6 c13 4 23 10 23 15 -1 4 0 13 1 20 1 6 3 -9 5 -35 l4 -47 47 -4z m220 50 l3 -37 -73 2 -73 2 68 3 c66 4 67 4 67 33 0 15 -5 31 -10 33 -6 3 -5 4 2 3 7 -1 14 -19 16 -39z m-1311 27 c-3 -3 -12 -4 -19 -1 -8 3 -5 6 6 6 11 1 17 -2 13 -5z m117 -8 c-10 -8 -21 -12 -24 -10 -5 6 21 24 34 24 6 0 1 -6 -10 -14z m873 8 c-3 -3 -12 -4 -19 -1 -8 3 -5 6 6 6 11 1 17 -2 13 -5z m117 -8 c-10 -8 -21 -12 -24 -10 -5 6 21 24 34 24 6 0 1 -6 -10 -14z m166 -17 c0 -15 -7 -19 -35 -19 -30 0 -35 3 -35 23 0 20 4 23 35 19 26 -3 35 -9 35 -23z m-944 9 c4 -7 4 -10 -1 -6 -4 4 -15 2 -24 -5 -14 -11 -14 -10 -2 6 16 20 18 21 27 5z m-99 -5 c-4 -3 -10 -3 -14 0 -3 4 0 7 7 7 7 0 10 -3 7 -7z m-292 -28 c0 -19 -8 -20 -214 -23 -127 -1 -219 2 -224 7 -5 5 -7 17 -4 26 6 13 33 15 224 13 210 -3 218 -4 218 -23z m332 18 c-4 -3 -10 -3 -14 0 -3 4 0 7 7 7 7 0 10 -3 7 -7z m658 -18 c0 -19 -8 -20 -214 -23 -127 -1 -219 2 -224 7 -5 5 -7 17 -4 26 6 13 33 15 224 13 210 -3 218 -4 218 -23z m-805 3 c0 -5 -14 -8 -31 -8 -16 0 -28 3 -26 8 3 4 17 7 31 7 14 0 26 -3 26 -7z m990 0 c0 -5 -14 -8 -31 -8 -16 0 -28 3 -26 8 3 4 17 7 31 7 14 0 26 -3 26 -7z m-823 -15 c-4 -3 -7 0 -7 7 0 7 3 10 7 7 3 -4 3 -10 0 -14z m-97 -35 c0 -6 -6 -5 -15 2 -8 7 -15 14 -15 16 0 2 7 1 15 -2 8 -4 15 -11 15 -16z m88 15 c-10 -2 -28 -2 -40 0 -13 2 -5 4 17 4 22 1 32 -1 23 -4z m1002 -14 c0 -18 -5 -20 -42 -17 -31 2 -44 8 -46 21 -3 14 4 17 42 17 40 0 46 -3 46 -21z m-1192 -6 c-15 -2 -42 -2 -60 0 -18 2 -6 4 27 4 33 0 48 -2 33 -4z m211 -41 c9 -7 10 -10 2 -6 -8 4 -28 11 -45 15 -24 5 -26 7 -8 8 13 1 22 8 23 19 1 14 2 14 6 -3 3 -11 13 -26 22 -33z m779 41 c-15 -2 -42 -2 -60 0 -18 2 -6 4 27 4 33 0 48 -2 33 -4z m-990 -20 c-15 -2 -42 -2 -60 0 -18 2 -6 4 27 4 33 0 48 -2 33 -4z m109 -10 c-4 -3 -7 0 -7 7 0 7 3 10 7 7 3 -4 3 -10 0 -14z m881 10 c-15 -2 -42 -2 -60 0 -18 2 -6 4 27 4 33 0 48 -2 33 -4z m207 -10 c-22 -3 -43 -10 -47 -16 -6 -9 -8 -9 -8 0 0 6 -17 14 -37 16 -21 2 0 4 47 4 47 0 67 -2 45 -4z m-1197 -10 c-15 -2 -42 -2 -60 0 -18 2 -6 4 27 4 33 0 48 -2 33 -4z m990 0 c-15 -2 -42 -2 -60 0 -18 2 -6 4 27 4 33 0 48 -2 33 -4z m-3425 -284 c15 -25 1 -49 -28 -49 -38 0 -29 -33 10 -41 30 -7 30 -7 3 -8 -45 -2 -72 54 -47 100 12 24 47 22 62 -2z m936 -1 c5 -13 16 -40 25 -60 l16 -38 -42 2 c-37 1 -38 2 -11 5 l32 4 -19 50 c-21 53 -23 59 -15 59 3 0 9 -10 14 -22z m985 16 c18 -7 22 -39 6 -49 -8 -5 -8 -11 0 -20 15 -18 1 -45 -24 -45 -33 0 -47 19 -34 44 8 15 8 21 -1 24 -6 2 -11 12 -11 22 0 25 31 37 64 24z m970 -13 c22 -24 18 -80 -6 -95 -25 -15 -53 4 -53 35 0 20 6 25 33 27 28 3 31 6 22 22 -5 10 -22 21 -37 23 l-28 4 26 2 c14 0 34 -7 43 -18z m924 12 c-14 -4 -18 -15 -18 -59 0 -55 -8 -66 -30 -39 -11 13 -10 14 4 9 13 -5 16 1 16 39 0 35 -4 47 -17 50 -10 3 0 5 22 5 22 0 32 -2 23 -5z m101 -7 c17 -21 10 -87 -11 -100 -28 -17 -52 5 -56 48 -4 41 11 66 38 66 10 0 23 -6 29 -14z m869 7 c-14 -4 -18 -15 -18 -59 0 -55 -8 -66 -30 -39 -11 13 -10 14 4 9 13 -5 16 1 16 39 0 35 -4 47 -17 50 -10 3 0 5 22 5 22 0 32 -2 23 -5z m100 0 c-14 -4 -18 -15 -18 -59 0 -55 -8 -66 -30 -39 -11 13 -10 14 4 9 13 -5 16 1 16 39 0 35 -4 47 -17 50 -10 3 0 5 22 5 22 0 32 -2 23 -5z m870 0 c-14 -4 -18 -15 -18 -59 0 -55 -8 -66 -30 -39 -11 13 -10 14 4 9 13 -5 16 1 16 39 0 35 -4 47 -17 50 -10 3 0 5 22 5 22 0 32 -2 23 -5z m84 0 l-33 -4 26 -31 c33 -39 30 -72 -7 -76 -16 -2 -28 1 -28 6 0 6 8 8 19 5 31 -8 32 23 0 66 l-29 41 42 -2 c38 -1 39 -2 10 -5z m-6554 -255 c16 -16 16 -80 0 -96 -31 -31 -68 -1 -68 55 0 32 16 53 40 53 9 0 21 -5 28 -12z m-16 -355 l-33 -4 26 -31 c31 -37 30 -72 -4 -76 -13 -2 -28 2 -35 8 -8 9 -4 10 16 5 43 -11 46 17 8 65 l-32 40 44 -2 c37 -1 38 -2 10 -5z m20 -380 c6 -33 -4 -103 -16 -103 -10 0 -56 70 -56 84 0 4 11 6 25 6 16 0 25 6 25 15 0 20 18 19 22 -2z m1 -374 c15 -25 1 -49 -28 -49 -38 0 -29 -33 10 -41 30 -7 30 -7 3 -8 -45 -2 -72 54 -47 100 12 24 47 22 62 -2z m4071 -283 c264 -52 666 -129 891 -171 226 -41 430 -81 455 -87 29 -7 225 -13 565 -17 511 -6 520 -6 520 -26 0 -20 -8 -20 -494 -23 l-493 -2 -562 105 c-308 57 -745 140 -970 185 l-409 80 -482 -95 -482 -95 -979 2 c-971 3 -979 3 -979 23 0 20 9 20 1005 26 l1005 6 440 90 c242 50 451 92 464 92 13 1 240 -41 505 -93z m-4080 -72 c18 -7 22 -39 6 -49 -8 -5 -8 -11 0 -20 15 -18 1 -45 -24 -45 -33 0 -47 19 -34 44 8 15 8 21 -1 24 -6 2 -11 12 -11 22 0 25 31 37 64 24z m-86 -371 c-14 -4 -18 -15 -18 -59 0 -55 -8 -66 -30 -39 -11 13 -10 14 4 9 13 -5 16 1 16 39 0 35 -4 47 -17 50 -10 3 0 5 22 5 22 0 32 -2 23 -5z m100 -5 c16 -16 16 -80 0 -96 -31 -31 -68 -1 -68 55 0 32 16 53 40 53 9 0 21 -5 28 -12z m-100 -355 c-14 -4 -18 -15 -18 -59 0 -55 -8 -66 -30 -39 -11 13 -10 14 4 9 13 -5 16 1 16 39 0 35 -4 47 -17 50 -10 3 0 5 22 5 22 0 32 -2 23 -5z m84 0 l-33 -4 26 -31 c31 -37 30 -72 -4 -76 -13 -2 -28 2 -35 8 -8 9 -4 10 16 5 43 -11 46 17 8 65 l-32 40 44 -2 c37 -1 38 -2 10 -5z m1175 -301 l483 -278 477 93 478 93 483 186 c296 114 489 183 500 179 9 -3 231 -130 493 -281 l477 -275 453 -168 c250 -93 465 -173 479 -179 21 -8 58 3 210 60 566 212 783 289 797 284 8 -3 13 -13 11 -23 -3 -17 -60 -39 -723 -284 l-270 -99 -260 96 c-143 53 -366 136 -495 184 l-235 88 -470 272 c-258 150 -477 273 -485 272 -12 -1 -490 -182 -855 -325 -71 -28 -196 -56 -583 -132 l-492 -96 -153 89 c-83 49 -306 178 -494 286 -189 109 -343 204 -343 210 0 16 10 26 24 26 6 0 228 -125 493 -278z m-1259 -69 c-14 -4 -18 -15 -18 -59 0 -55 -8 -66 -30 -39 -11 13 -10 14 4 9 13 -5 16 1 16 39 0 35 -4 47 -17 50 -10 3 0 5 22 5 22 0 32 -2 23 -5z m104 -10 c6 -33 -4 -103 -16 -103 -10 0 -56 70 -56 84 0 4 11 6 25 6 16 0 25 6 25 15 0 20 18 19 22 -2z m-104 -360 c-14 -4 -18 -15 -18 -59 0 -55 -8 -66 -30 -39 -11 13 -10 14 4 9 13 -5 16 1 16 39 0 35 -4 47 -17 50 -10 3 0 5 22 5 22 0 32 -2 23 -5z m105 -14 c15 -25 1 -49 -28 -49 -38 0 -29 -33 10 -41 30 -7 30 -7 3 -8 -45 -2 -72 54 -47 100 12 24 47 22 62 -2z m-105 -356 c-14 -4 -18 -15 -18 -59 0 -55 -8 -66 -30 -39 -11 13 -10 14 4 9 13 -5 16 1 16 39 0 35 -4 47 -17 50 -10 3 0 5 22 5 22 0 32 -2 23 -5z m96 1 c18 -7 22 -39 6 -49 -8 -5 -7 -11 1 -21 24 -29 -31 -60 -59 -32 -8 8 -8 17 0 32 8 15 8 21 -1 24 -12 4 -15 35 -4 45 8 9 36 9 57 1z"/>
<path d="M987 3834 c-4 -4 -7 -16 -7 -26 0 -14 6 -19 23 -16 14 2 22 10 22 23 0 20 -25 32 -38 19z"/>
<path d="M2905 3830 c-4 -7 -3 -16 3 -22 14 -14 47 -6 47 12 0 18 -40 26 -50 10z"/>
<path d="M2917 3774 c-14 -15 -6 -34 14 -34 14 0 19 5 17 17 -3 18 -20 27 -31 17z"/>
<path d="M3876 3781 c-9 -14 4 -41 20 -41 15 0 37 34 27 44 -9 9 -41 7 -47 -3z"/>
<path d="M4894 3815 c-9 -38 3 -75 26 -75 23 0 35 37 26 75 -4 16 -13 25 -26 25 -13 0 -22 -9 -26 -25z"/>
<path d="M264 3565 c-9 -38 3 -75 26 -75 23 0 35 37 26 75 -4 16 -13 25 -26 25 -13 0 -22 -9 -26 -25z"/>
<path d="M277 2803 c9 -16 18 -30 20 -32 2 -2 3 10 3 27 0 25 -4 32 -20 32 -20 0 -20 -1 -3 -27z"/>
<path d="M277 2484 c-4 -4 -7 -16 -7 -26 0 -14 6 -19 23 -16 14 2 22 10 22 23 0 20 -25 32 -38 19z"/>
<path d="M265 2110 c-4 -7 -3 -16 3 -22 14 -14 47 -6 47 12 0 18 -40 26 -50 10z"/>
<path d="M277 2054 c-14 -15 -6 -34 14 -34 14 0 19 5 17 17 -3 18 -20 27 -31 17z"/>
<path d="M274 1725 c-9 -38 3 -75 26 -75 13 0 22 9 26 25 9 38 -3 75 -26 75 -13 0 -22 -9 -26 -25z"/>
<path d="M287 963 c9 -16 18 -30 20 -32 2 -2 3 10 3 27 0 25 -4 32 -20 32 -20 0 -20 -1 -3 -27z"/>
<path d="M287 644 c-4 -4 -7 -16 -7 -26 0 -14 6 -19 23 -16 14 2 22 10 22 23 0 20 -25 32 -38 19z"/>
<path d="M275 270 c-4 -7 -3 -16 3 -22 14 -14 47 -6 47 12 0 18 -40 26 -50 10z"/>
<path d="M287 214 c-14 -15 -6 -34 14 -34 14 0 19 5 17 17 -3 18 -20 27 -31 17z"/>
</g>
<g id="layer105" fill="#fdfdfd" stroke="none">
<path d="M20 2260 l0 -2240 3740 0 3740 0 0 2240 0 2240 -3740 0 -3740 0 0 -2240z m3475 1998 c25 1 27 -1 12 -9 -13 -8 -15 -14 -7 -30 10 -17 7 -19 -30 -19 -56 0 -50 -18 8 -23 26 -2 7 -4 -43 -4 -49 -1 -84 1 -77 4 6 2 12 20 12 38 0 18 -6 36 -12 39 -7 4 4 4 25 2 22 -3 37 -1 37 6 0 6 9 7 23 3 12 -4 36 -7 52 -7z m85 -1 c0 -18 88 -37 94 -20 7 18 33 16 40 -2 3 -8 1 -15 -4 -15 -6 0 -10 5 -10 12 0 17 -16 -2 -24 -28 -5 -17 -1 -23 16 -29 22 -8 22 -8 -4 -12 -32 -5 -37 -29 -11 -49 15 -10 10 -10 -30 -1 l-47 10 0 54 c0 33 -4 53 -11 53 -8 0 -10 -20 -7 -65 3 -36 3 -65 -1 -65 -4 0 -13 17 -21 38 -8 20 -17 41 -19 46 -2 5 1 6 8 2 7 -5 11 7 11 38 0 25 5 46 10 46 6 0 10 -6 10 -13z m88 6 c-16 -2 -40 -2 -55 0 -16 2 -3 4 27 4 30 0 43 -2 28 -4z m817 -5 c25 1 27 -1 12 -9 -13 -8 -15 -14 -7 -30 10 -17 7 -19 -30 -19 -56 0 -50 -18 8 -23 26 -2 7 -4 -43 -4 -49 -1 -84 1 -77 4 6 2 12 20 12 38 0 18 -6 36 -12 39 -7 4 4 4 25 2 22 -3 37 -1 37 6 0 6 9 7 23 3 12 -4 36 -7 52 -7z m75 -23 l0 -35 60 0 c60 0 60 0 60 29 0 16 -6 32 -12 34 -8 3 -6 6 5 6 13 1 17 -7 17 -39 l0 -40 -75 0 -75 0 0 40 c0 22 5 40 10 40 6 0 10 -16 10 -35z m90 -2 c0 -20 -5 -23 -35 -23 -30 0 -35 3 -35 23 0 19 5 22 35 22 30 0 35 -3 35 -22z m-1335 -28 c0 -19 -8 -20 -214 -23 -127 -1 -219 2 -224 7 -5 5 -7 17 -4 26 6 13 33 15 224 13 210 -3 218 -4 218 -23z m993 -2 l3 -23 -220 0 c-221 0 -240 3 -227 36 5 12 39 14 223 12 218 -3 218 -3 221 -25z m352 -43 c0 -17 -7 -20 -45 -20 -38 0 -45 3 -45 20 0 17 7 20 45 20 38 0 45 -3 45 -20z m-1160 -25 c0 -24 -2 -25 -65 -25 -63 0 -65 1 -65 25 0 24 2 25 65 25 63 0 65 -1 65 -25z m990 0 c0 -24 -2 -25 -65 -25 -63 0 -65 1 -65 25 0 24 2 25 65 25 63 0 65 -1 65 -25z m173 -12 c-24 -2 -43 -9 -43 -16 0 -9 -2 -9 -8 0 -4 6 -25 13 -47 16 -22 2 1 4 50 4 50 0 71 -2 48 -4z m-3623 -294 c14 -26 -3 -49 -36 -49 -40 0 -24 -32 21 -43 14 -3 11 -5 -10 -6 -40 -1 -55 15 -55 59 0 20 5 41 12 48 19 19 56 14 68 -9z m949 -35 c11 -31 21 -58 21 -60 0 -2 -19 -3 -42 -2 -37 1 -39 2 -11 5 33 4 33 4 18 34 -30 56 -36 79 -21 79 7 0 23 -25 35 -56z m981 41 c10 -13 10 -19 -3 -33 -12 -14 -14 -21 -6 -29 19 -19 2 -43 -31 -43 -33 0 -50 24 -31 43 8 8 6 15 -6 29 -21 23 -2 48 37 48 15 0 33 -7 40 -15z m959 1 c7 -8 11 -34 9 -58 -3 -42 -4 -43 -38 -43 -32 0 -35 2 -35 30 0 25 4 30 28 33 15 2 27 7 27 11 0 12 -22 28 -45 34 -14 3 -10 5 11 6 17 0 37 -5 43 -13z m924 7 c-8 -3 -13 -25 -13 -59 0 -58 -10 -66 -46 -39 -17 13 -17 14 -1 15 13 0 17 9 17 39 0 22 -5 42 -12 44 -7 3 5 5 27 5 22 0 34 -2 28 -5z m111 -25 c15 -41 -3 -82 -36 -86 -35 -4 -62 34 -52 74 10 43 13 45 47 42 24 -2 34 -10 41 -30z m859 25 c-8 -3 -13 -25 -13 -59 0 -58 -10 -66 -46 -39 -17 13 -17 14 -1 15 13 0 17 9 17 39 0 22 -5 42 -12 44 -7 3 5 5 27 5 22 0 34 -2 28 -5z m100 0 c-8 -3 -13 -25 -13 -59 0 -58 -10 -66 -46 -39 -17 13 -17 14 -1 15 13 0 17 9 17 39 0 22 -5 42 -12 44 -7 3 5 5 27 5 22 0 34 -2 28 -5z m870 0 c-8 -3 -13 -25 -13 -59 0 -58 -10 -66 -46 -39 -17 13 -17 14 -1 15 13 0 17 9 17 39 0 22 -5 42 -12 44 -7 3 5 5 27 5 22 0 34 -2 28 -5z m85 0 l-28 -4 21 -28 c27 -37 22 -75 -10 -79 -13 -2 -28 1 -34 7 -9 9 -5 11 13 9 35 -4 38 31 5 62 -35 33 -32 40 18 39 29 -2 34 -3 15 -6z m-6544 -274 c11 -32 1 -78 -19 -86 -8 -3 -26 -2 -39 1 -28 7 -41 52 -26 92 8 21 15 25 42 22 25 -2 35 -9 42 -29z m6946 -19 c0 -7 -1135 -10 -3385 -10 -2250 0 -3385 3 -3385 10 0 7 1135 10 3385 10 2250 0 3385 -3 3385 -10z m-6972 -317 l-28 -4 21 -28 c27 -37 22 -75 -10 -79 -13 -2 -28 1 -34 7 -9 9 -5 11 13 9 35 -4 38 31 5 62 -35 33 -32 40 18 39 29 -2 34 -3 15 -6z m6972 -53 c0 -7 -1135 -10 -3385 -10 -2250 0 -3385 3 -3385 10 0 7 1135 10 3385 10 2250 0 3385 -3 3385 -10z m-6960 -325 c0 -8 6 -15 13 -16 10 0 10 -2 0 -6 -8 -2 -13 -22 -13 -45 0 -52 -23 -49 -57 10 l-25 42 31 0 c21 0 31 5 31 15 0 8 5 15 10 15 6 0 10 -7 10 -15z m6960 -45 c0 -7 -1135 -10 -3385 -10 -2250 0 -3385 3 -3385 10 0 7 1135 10 3385 10 2250 0 3385 -3 3385 -10z m-6950 -331 c14 -26 -3 -49 -36 -49 -40 0 -24 -32 21 -43 13 -3 9 -5 -12 -6 -22 -1 -35 5 -43 18 -14 26 -13 74 2 89 19 19 56 14 68 -9z m6950 -39 c0 -7 -1135 -10 -3385 -10 -2250 0 -3385 3 -3385 10 0 7 1135 10 3385 10 2250 0 3385 -3 3385 -10z m-3115 -200 c138 -27 366 -72 508 -100 l257 -50 1175 0 c773 0 1175 -3 1175 -10 0 -6 -381 -11 -1107 -12 l-1108 -3 235 -43 c129 -24 294 -55 365 -69 128 -27 137 -27 645 -33 507 -5 515 -5 515 -25 0 -20 -7 -20 -515 -20 -442 0 -527 2 -600 17 -108 21 -289 55 -660 124 l-295 54 -875 -5 c-2477 -14 -2894 -15 -2904 -5 -6 6 -97 10 -238 10 -125 0 -228 4 -228 8 0 13 621 22 1559 22 l854 0 351 70 c193 38 405 80 471 94 66 13 131 24 145 25 14 1 138 -21 275 -49z m-3835 -125 c10 -13 10 -19 -3 -33 -12 -14 -14 -21 -6 -29 19 -19 2 -43 -31 -43 -33 0 -50 24 -31 43 8 8 6 15 -6 29 -21 23 -2 48 37 48 15 0 33 -7 40 -15z m-97 -362 c-8 -3 -13 -25 -13 -59 0 -55 -9 -65 -40 -43 -11 8 -12 12 -2 16 20 8 15 81 -5 86 -10 3 2 5 27 5 25 0 39 -2 33 -5z m111 -25 c14 -40 -3 -82 -34 -86 -38 -4 -53 12 -53 56 0 53 9 64 46 60 24 -2 34 -10 41 -30z m6936 -18 c0 -7 -1135 -10 -3385 -10 -2250 0 -3385 3 -3385 10 0 7 1135 10 3385 10 2250 0 3385 -3 3385 -10z m-7047 -317 c-8 -3 -13 -25 -13 -59 0 -55 -9 -65 -40 -43 -11 8 -12 12 -2 16 20 8 15 81 -5 86 -10 3 2 5 27 5 25 0 39 -2 33 -5z m85 0 l-28 -4 21 -28 c27 -37 22 -75 -10 -79 -13 -2 -28 1 -34 7 -9 9 -5 11 13 9 35 -4 38 31 5 62 -35 33 -32 40 18 39 29 -2 34 -3 15 -6z m2112 -41 c1083 -2 1410 0 1428 10 18 9 30 9 56 0 24 -9 437 -12 1699 -12 1101 0 1667 -3 1667 -10 0 -7 -562 -11 -1651 -12 l-1651 -3 54 -28 c29 -16 69 -39 89 -50 20 -12 72 -42 115 -67 44 -25 88 -50 99 -57 11 -7 31 -18 45 -25 14 -6 32 -17 40 -24 8 -6 42 -26 75 -43 33 -18 64 -37 70 -42 5 -5 555 -9 1362 -9 895 0 1353 -3 1353 -10 0 -7 -451 -10 -1332 -10 l-1333 0 110 -63 c138 -79 180 -98 318 -148 62 -23 121 -45 132 -50 11 -4 69 -27 129 -49 l109 -40 424 0 c394 0 428 1 471 19 50 20 250 95 317 118 22 7 49 18 60 22 67 30 126 44 136 34 7 -7 9 -18 7 -25 -3 -7 -97 -47 -209 -88 l-204 -75 433 -3 c276 -1 432 -6 432 -12 0 -6 -165 -10 -465 -10 l-464 0 -258 -95 -257 -95 -236 86 c-129 47 -243 90 -252 95 -11 5 -975 9 -2428 9 -1597 0 -2410 3 -2410 10 0 7 802 11 2373 12 l2372 3 -120 44 c-66 24 -134 49 -152 57 -17 8 -36 14 -42 14 -17 0 -140 60 -196 95 -27 18 -75 45 -105 62 -30 16 -72 40 -93 52 -38 21 -39 21 -801 21 l-763 0 -229 -46 c-126 -25 -240 -48 -254 -50 -61 -12 -437 -86 -455 -90 -70 -16 -85 -14 -127 9 -61 34 -200 116 -218 127 -82 52 -50 50 -642 50 -355 0 -548 3 -548 10 0 6 189 11 531 12 l531 3 -74 42 c-40 22 -89 50 -108 61 -42 24 -189 109 -210 122 -8 5 -58 34 -112 65 l-96 55 -231 0 c-147 0 -231 4 -231 10 0 6 83 10 229 10 155 0 232 4 237 11 4 7 14 8 28 2 11 -4 653 -9 1426 -11z m-2197 -329 c-8 -3 -13 -25 -13 -59 0 -58 -10 -66 -46 -39 -17 13 -17 14 -1 15 13 0 17 9 17 39 0 22 -5 42 -12 44 -7 3 5 5 27 5 22 0 34 -2 28 -5z m97 -8 c0 -8 6 -15 13 -16 10 0 10 -2 0 -6 -8 -2 -13 -22 -13 -45 0 -52 -23 -49 -57 10 l-25 42 31 0 c21 0 31 5 31 15 0 8 5 15 10 15 6 0 10 -7 10 -15z m-97 -362 c-8 -3 -13 -25 -13 -59 0 -55 -9 -65 -40 -43 -11 8 -12 12 -2 16 20 8 15 81 -5 86 -10 3 2 5 27 5 25 0 39 -2 33 -5z m107 -14 c14 -26 -3 -49 -36 -49 -40 0 -24 -32 21 -43 16 -4 14 -5 -7 -6 -15 0 -34 6 -42 15 -19 18 -21 75 -4 92 19 19 56 14 68 -9z m-107 -356 c-8 -3 -13 -25 -13 -59 0 -55 -9 -65 -40 -43 -11 8 -12 12 -2 16 6 2 12 22 12 43 0 21 -6 41 -12 43 -7 3 5 5 27 5 22 0 34 -2 28 -5z m107 -8 c10 -13 10 -19 -3 -33 -12 -14 -14 -21 -6 -29 19 -19 2 -43 -31 -43 -33 0 -51 23 -32 42 7 7 7 16 0 28 -6 10 -8 25 -5 34 8 21 60 21 77 1z m6940 -35 c0 -7 -1135 -10 -3385 -10 -2250 0 -3385 3 -3385 10 0 7 1135 10 3385 10 2250 0 3385 -3 3385 -10z"/>
<path d="M3430 4235 c0 -14 5 -25 10 -25 6 0 10 2 10 4 0 2 3 11 6 19 3 8 -2 17 -10 20 -12 5 -16 0 -16 -18z"/>
<path d="M3398 4233 c7 -3 16 -2 19 1 4 3 -2 6 -13 5 -11 0 -14 -3 -6 -6z"/>
<path d="M3465 4220 c-3 -5 1 -10 10 -10 9 0 13 5 10 10 -3 6 -8 10 -10 10 -2 0 -7 -4 -10 -10z"/>
<path d="M3390 4210 c0 -5 7 -10 15 -10 8 0 15 5 15 10 0 6 -7 10 -15 10 -8 0 -15 -4 -15 -10z"/>
<path d="M3398 4183 c7 -3 16 -2 19 1 4 3 -2 6 -13 5 -11 0 -14 -3 -6 -6z"/>
<path d="M3620 4200 c0 -15 5 -20 18 -18 9 2 17 10 17 18 0 8 -8 16 -17 18 -13 2 -18 -3 -18 -18z"/>
<path d="M3620 4150 c0 -11 7 -20 15 -20 8 0 15 6 15 14 0 8 -7 16 -15 20 -10 4 -15 -1 -15 -14z"/>
<path d="M4420 4235 c0 -14 5 -25 10 -25 6 0 10 2 10 4 0 2 3 11 6 19 3 8 -2 17 -10 20 -12 5 -16 0 -16 -18z"/>
<path d="M4388 4233 c7 -3 16 -2 19 1 4 3 -2 6 -13 5 -11 0 -14 -3 -6 -6z"/>
<path d="M4455 4220 c-3 -5 1 -10 10 -10 9 0 13 5 10 10 -3 6 -8 10 -10 10 -2 0 -7 -4 -10 -10z"/>
<path d="M4380 4210 c0 -5 7 -10 15 -10 8 0 15 5 15 10 0 6 -7 10 -15 10 -8 0 -15 -4 -15 -10z"/>
<path d="M4388 4183 c7 -3 16 -2 19 1 4 3 -2 6 -13 5 -11 0 -14 -3 -6 -6z"/>
<path d="M4590 4230 c0 -5 11 -10 25 -10 14 0 25 5 25 10 0 6 -11 10 -25 10 -14 0 -25 -4 -25 -10z"/>
<path d="M4580 4160 c0 -5 16 -10 35 -10 19 0 35 5 35 10 0 6 -16 10 -35 10 -19 0 -35 -4 -35 -10z"/>
<path d="M3413 4143 c15 -2 37 -2 50 0 12 2 0 4 -28 4 -27 0 -38 -2 -22 -4z"/>
<path d="M3413 4123 c15 -2 37 -2 50 0 12 2 0 4 -28 4 -27 0 -38 -2 -22 -4z"/>
<path d="M4403 4143 c15 -2 37 -2 50 0 12 2 0 4 -28 4 -27 0 -38 -2 -22 -4z"/>
<path d="M4403 4123 c15 -2 37 -2 50 0 12 2 0 4 -28 4 -27 0 -38 -2 -22 -4z"/>
<path d="M984 3826 c-7 -19 3 -36 22 -36 10 0 14 8 12 22 -4 26 -26 36 -34 14z"/>
<path d="M2914 3829 c-3 -6 -2 -15 4 -21 13 -13 32 -2 32 18 0 16 -26 19 -36 3z"/>
<path d="M2914 3769 c-10 -17 13 -36 27 -22 12 12 4 33 -11 33 -5 0 -12 -5 -16 -11z"/>
<path d="M3883 3774 c-7 -18 11 -39 26 -30 17 11 13 46 -4 46 -9 0 -18 -7 -22 -16z"/>
<path d="M4904 3827 c-10 -28 0 -82 16 -82 11 0 15 12 15 44 0 44 -19 68 -31 38z"/>
<path d="M274 3577 c-10 -28 0 -82 16 -82 11 0 15 12 15 44 0 44 -19 68 -31 38z"/>
<path d="M270 2823 c0 -5 7 -17 15 -27 14 -19 15 -19 15 7 0 17 -5 27 -15 27 -8 0 -15 -3 -15 -7z"/>
<path d="M274 2476 c-7 -19 3 -36 22 -36 10 0 14 8 12 22 -4 26 -26 36 -34 14z"/>
<path d="M3515 2165 l-360 -73 745 0 c410 0 736 3 725 5 -55 14 -729 143 -739 142 -6 -1 -173 -34 -371 -74z"/>
<path d="M274 2109 c-8 -14 11 -33 25 -25 16 10 13 36 -3 36 -8 0 -18 -5 -22 -11z"/>
<path d="M274 2049 c-10 -17 13 -36 27 -22 12 12 4 33 -11 33 -5 0 -12 -5 -16 -11z"/>
<path d="M284 1737 c-10 -28 0 -82 16 -82 11 0 15 12 15 44 0 44 -19 68 -31 38z"/>
<path d="M1105 1314 c32 -18 56 -32 116 -67 20 -12 72 -42 115 -67 44 -25 88 -50 99 -57 11 -7 31 -18 45 -25 14 -6 32 -17 40 -23 8 -7 35 -23 60 -36 25 -13 56 -32 69 -41 22 -17 65 -18 605 -18 578 0 628 3 711 36 59 24 76 31 115 44 19 7 49 19 65 25 17 7 46 18 65 25 19 7 49 19 65 25 17 7 46 18 65 25 19 7 49 19 65 26 17 7 57 22 90 34 33 12 74 27 90 34 17 8 66 27 110 44 l80 31 -1350 0 c-1253 1 -1348 0 -1320 -15z"/>
<path d="M3880 1312 c-21 -6 -82 -32 -102 -43 -10 -5 -23 -9 -29 -9 -6 0 -25 -6 -42 -14 -18 -7 -48 -19 -67 -26 -48 -18 -101 -40 -122 -51 -10 -5 -23 -9 -29 -9 -6 0 -27 -7 -47 -16 -51 -22 -55 -24 -246 -95 l-169 -64 361 -3 c199 -1 525 -1 723 0 l362 3 -89 50 c-48 28 -95 54 -104 58 -8 4 -33 19 -55 32 -22 14 -53 32 -70 40 -16 9 -43 24 -60 35 -16 11 -41 25 -55 32 -14 6 -32 17 -40 23 -38 29 -106 62 -120 57z"/>
<path d="M1830 895 c63 -36 121 -69 129 -73 8 -5 139 17 310 51 163 32 310 61 326 64 107 18 53 21 -390 22 l-490 1 115 -65z"/>
<path d="M5510 576 c19 -7 87 -32 150 -56 63 -23 128 -48 144 -55 25 -11 37 -10 95 11 36 13 73 28 81 33 9 5 30 12 48 15 17 4 34 12 37 17 4 5 13 9 22 9 8 0 29 6 46 14 18 8 39 17 47 19 8 3 -147 6 -345 6 -308 0 -355 -2 -325 -13z"/>
<path d="M280 983 c0 -5 7 -17 15 -27 14 -19 15 -19 15 7 0 17 -5 27 -15 27 -8 0 -15 -3 -15 -7z"/>
<path d="M284 636 c-7 -19 3 -36 22 -36 10 0 14 8 12 22 -4 26 -26 36 -34 14z"/>
<path d="M284 269 c-3 -6 -2 -15 4 -21 13 -13 32 -2 32 18 0 16 -26 19 -36 3z"/>
<path d="M284 209 c-10 -17 13 -36 27 -22 12 12 4 33 -11 33 -5 0 -12 -5 -16 -11z"/>
</g>


</svg>